<mxfile host="app.diagrams.net" modified="2021-11-23T10:10:57.685Z" agent="5.0 (Macintosh; Intel Mac OS X 10_15_6) AppleWebKit/537.36 (KHTML, like Gecko) Chrome/95.0.4638.69 Safari/537.36" etag="7cpxkbisP9mQSNRVfSwD" version="15.7.3" type="github">
  <diagram id="mRemkgFl3Kmgo4zJEtnh" name="Page-1">
    <mxGraphModel dx="565" dy="281" grid="1" gridSize="10" guides="1" tooltips="1" connect="1" arrows="1" fold="1" page="1" pageScale="1" pageWidth="850" pageHeight="1100" math="0" shadow="0">
      <root>
        <mxCell id="0" />
        <mxCell id="1" parent="0" />
        <mxCell id="stkp9AwqBUyyJuz8cSXO-3" value="" style="shape=line;html=1;strokeWidth=6;strokeColor=#ff0000;" vertex="1" parent="1">
          <mxGeometry x="800" y="560" width="7570" height="10" as="geometry" />
        </mxCell>
        <mxCell id="stkp9AwqBUyyJuz8cSXO-6" style="edgeStyle=orthogonalEdgeStyle;rounded=0;orthogonalLoop=1;jettySize=auto;html=1;" edge="1" parent="1" source="stkp9AwqBUyyJuz8cSXO-5">
          <mxGeometry relative="1" as="geometry">
            <mxPoint x="5610" y="550" as="targetPoint" />
          </mxGeometry>
        </mxCell>
        <mxCell id="stkp9AwqBUyyJuz8cSXO-5" value="鸦片战争" style="text;html=1;strokeColor=none;fillColor=none;align=center;verticalAlign=middle;whiteSpace=wrap;rounded=0;" vertex="1" parent="1">
          <mxGeometry x="5580" y="410" width="60" height="30" as="geometry" />
        </mxCell>
        <mxCell id="stkp9AwqBUyyJuz8cSXO-7" value="1840" style="text;html=1;strokeColor=none;fillColor=none;align=center;verticalAlign=middle;whiteSpace=wrap;rounded=0;" vertex="1" parent="1">
          <mxGeometry x="5580" y="590" width="60" height="20" as="geometry" />
        </mxCell>
        <mxCell id="stkp9AwqBUyyJuz8cSXO-10" value="" style="endArrow=classic;html=1;rounded=0;exitX=0.5;exitY=0;exitDx=0;exitDy=0;" edge="1" parent="1" source="stkp9AwqBUyyJuz8cSXO-7">
          <mxGeometry width="50" height="50" relative="1" as="geometry">
            <mxPoint x="5570" y="520" as="sourcePoint" />
            <mxPoint x="5610" y="570" as="targetPoint" />
          </mxGeometry>
        </mxCell>
      </root>
    </mxGraphModel>
  </diagram>
</mxfile>
